G04 PROTEUS GERBER X2 FILE*
%TF.GenerationSoftware,Labcenter,Proteus,8.13-SP0-Build31525*%
%TF.CreationDate,2022-10-31T03:05:26+00:00*%
%TF.FileFunction,AssemblyDrawing,Top*%
%TF.FilePolarity,Positive*%
%TF.Part,Single*%
%TF.SameCoordinates,{c032f36a-8843-4a41-912d-e50223fc27ad}*%
%FSLAX45Y45*%
%MOMM*%
G01*
%TA.AperFunction,Profile*%
%ADD17C,0.203200*%
%TA.AperFunction,Material*%
%ADD70C,0.203200*%
%ADD27C,1.219200*%
%ADD28C,0.314280*%
%ADD29C,0.914400*%
%ADD72C,0.186690*%
%ADD73C,0.711200*%
%ADD30C,0.110230*%
%ADD31C,0.365760*%
%ADD32C,0.050800*%
%ADD33C,0.812800*%
%ADD34C,0.184240*%
%ADD35C,0.609600*%
%ADD36C,0.168480*%
%ADD37C,0.508000*%
%ADD38C,0.302420*%
%ADD39C,0.111760*%
%TD.AperFunction*%
D17*
X-13750000Y+2750000D02*
X+0Y+2750000D01*
X+0Y+10000000D01*
X-13750000Y+10000000D01*
X-13750000Y+2750000D01*
D70*
X-13522160Y+7731840D02*
X-12485840Y+7731840D01*
X-12485840Y+8768160D01*
X-13522160Y+8768160D01*
X-13522160Y+7731840D01*
D27*
X-12750000Y+8250000D02*
X-12750000Y+8250000D01*
D28*
X-13135131Y+7967147D02*
X-13103703Y+7967147D01*
X-13072275Y+8002503D01*
X-13072275Y+8143930D01*
X-13103703Y+8179286D01*
X-13260844Y+8179286D01*
X-13229416Y+8285356D02*
X-13260844Y+8320713D01*
X-13260844Y+8426783D01*
X-13229416Y+8462139D01*
X-13197988Y+8462139D01*
X-13166560Y+8426783D01*
X-13166560Y+8320713D01*
X-13135131Y+8285356D01*
X-13072275Y+8285356D01*
X-13072275Y+8462139D01*
D70*
X-3514160Y+8231840D02*
X-2477840Y+8231840D01*
X-2477840Y+9268160D01*
X-3514160Y+9268160D01*
X-3514160Y+8231840D01*
D27*
X-3250000Y+8750000D02*
X-3250000Y+8750000D01*
D28*
X-2802011Y+8467147D02*
X-2770583Y+8467147D01*
X-2739155Y+8502503D01*
X-2739155Y+8643930D01*
X-2770583Y+8679286D01*
X-2927724Y+8679286D01*
X-2864868Y+8820713D02*
X-2927724Y+8891426D01*
X-2739155Y+8891426D01*
D70*
X-12644780Y+6135700D02*
X-12357760Y+6135700D01*
X-12357760Y+7380300D01*
X-12644780Y+7380300D01*
X-12644780Y+6135700D01*
D29*
X-12500000Y+6250000D02*
X-12500000Y+6250000D01*
D72*
X-12445263Y+6669989D02*
X-12557277Y+6669989D01*
X-12557277Y+6753999D01*
X-12519939Y+6796004D01*
X-12482601Y+6796004D01*
X-12445263Y+6753999D01*
X-12445263Y+6669989D01*
X-12519939Y+6880015D02*
X-12557277Y+6922020D01*
X-12445263Y+6922020D01*
D70*
X-11838900Y+6161100D02*
X-11661100Y+6161100D01*
X-11661100Y+7354900D01*
X-11838900Y+7354900D01*
X-11838900Y+6161100D01*
D73*
X-11750000Y+6250000D02*
X-11750000Y+6250000D01*
D30*
X-11716929Y+6721018D02*
X-11783070Y+6721018D01*
X-11783070Y+6783025D01*
X-11772047Y+6795427D01*
X-11761023Y+6795427D01*
X-11750000Y+6783025D01*
X-11750000Y+6721018D01*
X-11750000Y+6783025D02*
X-11738976Y+6795427D01*
X-11716929Y+6795427D01*
X-11761023Y+6845033D02*
X-11783070Y+6869836D01*
X-11716929Y+6869836D01*
D70*
X-11338900Y+6145100D02*
X-11161100Y+6145100D01*
X-11161100Y+7338900D01*
X-11338900Y+7338900D01*
X-11338900Y+6145100D01*
D73*
X-11250000Y+7250000D02*
X-11250000Y+7250000D01*
D30*
X-11216929Y+6580558D02*
X-11283070Y+6580558D01*
X-11283070Y+6642565D01*
X-11272047Y+6654967D01*
X-11261023Y+6654967D01*
X-11250000Y+6642565D01*
X-11250000Y+6580558D01*
X-11250000Y+6642565D02*
X-11238976Y+6654967D01*
X-11216929Y+6654967D01*
X-11272047Y+6692171D02*
X-11283070Y+6704573D01*
X-11283070Y+6741777D01*
X-11272047Y+6754179D01*
X-11261023Y+6754179D01*
X-11250000Y+6741777D01*
X-11250000Y+6704573D01*
X-11238976Y+6692171D01*
X-11216929Y+6692171D01*
X-11216929Y+6754179D01*
D70*
X-8391160Y+7969840D02*
X-7608840Y+7969840D01*
X-7608840Y+9514160D01*
X-8391160Y+9514160D01*
X-8391160Y+7969840D01*
D27*
X-8000000Y+9250000D02*
X-8000000Y+9250000D01*
D31*
X-7890272Y+8085664D02*
X-8109728Y+8085664D01*
X-8109728Y+8291404D01*
X-8073152Y+8332552D01*
X-8036576Y+8332552D01*
X-8000000Y+8291404D01*
X-8000000Y+8085664D01*
X-8000000Y+8291404D02*
X-7963424Y+8332552D01*
X-7890272Y+8332552D01*
X-8109728Y+8414848D02*
X-8000000Y+8414848D01*
X-7890272Y+8538292D01*
X-8000000Y+8661736D01*
X-8109728Y+8661736D01*
X-8036576Y+8826328D02*
X-8109728Y+8908624D01*
X-7890272Y+8908624D01*
D70*
X-10588900Y+7911100D02*
X-9395100Y+7911100D01*
X-9395100Y+8088900D01*
X-10588900Y+8088900D01*
X-10588900Y+7911100D01*
D73*
X-10500000Y+8000000D02*
X-10500000Y+8000000D01*
D30*
X-10028982Y+7966929D02*
X-10028982Y+8033070D01*
X-9966975Y+8033070D01*
X-9954573Y+8022047D01*
X-9954573Y+8011023D01*
X-9966975Y+8000000D01*
X-10028982Y+8000000D01*
X-9966975Y+8000000D02*
X-9954573Y+7988976D01*
X-9954573Y+7966929D01*
X-9855361Y+8011023D02*
X-9867763Y+8000000D01*
X-9904967Y+8000000D01*
X-9917369Y+8011023D01*
X-9917369Y+8022047D01*
X-9904967Y+8033070D01*
X-9867763Y+8033070D01*
X-9855361Y+8022047D01*
X-9855361Y+7977952D01*
X-9867763Y+7966929D01*
X-9904967Y+7966929D01*
D70*
X-10588900Y+7661100D02*
X-9395100Y+7661100D01*
X-9395100Y+7838900D01*
X-10588900Y+7838900D01*
X-10588900Y+7661100D01*
D73*
X-10500000Y+7750000D02*
X-10500000Y+7750000D01*
D30*
X-10078588Y+7716929D02*
X-10078588Y+7783070D01*
X-10016581Y+7783070D01*
X-10004179Y+7772047D01*
X-10004179Y+7761023D01*
X-10016581Y+7750000D01*
X-10078588Y+7750000D01*
X-10016581Y+7750000D02*
X-10004179Y+7738976D01*
X-10004179Y+7716929D01*
X-9954573Y+7761023D02*
X-9929770Y+7783070D01*
X-9929770Y+7716929D01*
X-9880164Y+7727952D02*
X-9880164Y+7772047D01*
X-9867763Y+7783070D01*
X-9818157Y+7783070D01*
X-9805755Y+7772047D01*
X-9805755Y+7727952D01*
X-9818157Y+7716929D01*
X-9867763Y+7716929D01*
X-9880164Y+7727952D01*
X-9880164Y+7716929D02*
X-9805755Y+7783070D01*
D70*
X-10588900Y+8161100D02*
X-9395100Y+8161100D01*
X-9395100Y+8338900D01*
X-10588900Y+8338900D01*
X-10588900Y+8161100D01*
D73*
X-10500000Y+8250000D02*
X-10500000Y+8250000D01*
D30*
X-10078588Y+8216929D02*
X-10078588Y+8283070D01*
X-10016581Y+8283070D01*
X-10004179Y+8272047D01*
X-10004179Y+8261023D01*
X-10016581Y+8250000D01*
X-10078588Y+8250000D01*
X-10016581Y+8250000D02*
X-10004179Y+8238976D01*
X-10004179Y+8216929D01*
X-9954573Y+8261023D02*
X-9929770Y+8283070D01*
X-9929770Y+8216929D01*
X-9855361Y+8261023D02*
X-9830558Y+8283070D01*
X-9830558Y+8216929D01*
D32*
X-12839940Y+4750000D02*
X-12840858Y+4772814D01*
X-12848311Y+4818443D01*
X-12863858Y+4864072D01*
X-12889100Y+4909701D01*
X-12927642Y+4955231D01*
X-12973271Y+4990727D01*
X-13018900Y+5013847D01*
X-13064529Y+5027700D01*
X-13110158Y+5033646D01*
X-13123920Y+5033980D01*
X-13407900Y+4750000D02*
X-13406982Y+4772814D01*
X-13399529Y+4818443D01*
X-13383982Y+4864072D01*
X-13358740Y+4909701D01*
X-13320198Y+4955231D01*
X-13274569Y+4990727D01*
X-13228940Y+5013847D01*
X-13183311Y+5027700D01*
X-13137682Y+5033646D01*
X-13123920Y+5033980D01*
X-13407900Y+4750000D02*
X-13406982Y+4727186D01*
X-13399529Y+4681557D01*
X-13383982Y+4635928D01*
X-13358740Y+4590299D01*
X-13320198Y+4544769D01*
X-13274569Y+4509273D01*
X-13228940Y+4486153D01*
X-13183311Y+4472300D01*
X-13137682Y+4466354D01*
X-13123920Y+4466020D01*
X-12839940Y+4750000D02*
X-12840858Y+4727186D01*
X-12848311Y+4681557D01*
X-12863858Y+4635928D01*
X-12889100Y+4590299D01*
X-12927642Y+4544769D01*
X-12973271Y+4509273D01*
X-13018900Y+4486153D01*
X-13064529Y+4472300D01*
X-13110158Y+4466354D01*
X-13123920Y+4466020D01*
D33*
X-12996000Y+4750000D02*
X-12996000Y+4750000D01*
D34*
X-13186692Y+4708546D02*
X-13168268Y+4687819D01*
X-13168268Y+4625638D01*
X-13205116Y+4584184D01*
X-13241964Y+4584184D01*
X-13278812Y+4625638D01*
X-13278812Y+4687819D01*
X-13260388Y+4708546D01*
X-13241964Y+4791454D02*
X-13278812Y+4832908D01*
X-13168268Y+4832908D01*
D32*
X-8589940Y+7250000D02*
X-8590858Y+7272814D01*
X-8598311Y+7318443D01*
X-8613858Y+7364072D01*
X-8639100Y+7409701D01*
X-8677642Y+7455231D01*
X-8723271Y+7490727D01*
X-8768900Y+7513847D01*
X-8814529Y+7527700D01*
X-8860158Y+7533646D01*
X-8873920Y+7533980D01*
X-9157900Y+7250000D02*
X-9156982Y+7272814D01*
X-9149529Y+7318443D01*
X-9133982Y+7364072D01*
X-9108740Y+7409701D01*
X-9070198Y+7455231D01*
X-9024569Y+7490727D01*
X-8978940Y+7513847D01*
X-8933311Y+7527700D01*
X-8887682Y+7533646D01*
X-8873920Y+7533980D01*
X-9157900Y+7250000D02*
X-9156982Y+7227186D01*
X-9149529Y+7181557D01*
X-9133982Y+7135928D01*
X-9108740Y+7090299D01*
X-9070198Y+7044769D01*
X-9024569Y+7009273D01*
X-8978940Y+6986153D01*
X-8933311Y+6972300D01*
X-8887682Y+6966354D01*
X-8873920Y+6966020D01*
X-8589940Y+7250000D02*
X-8590858Y+7227186D01*
X-8598311Y+7181557D01*
X-8613858Y+7135928D01*
X-8639100Y+7090299D01*
X-8677642Y+7044769D01*
X-8723271Y+7009273D01*
X-8768900Y+6986153D01*
X-8814529Y+6972300D01*
X-8860158Y+6966354D01*
X-8873920Y+6966020D01*
D33*
X-8746000Y+7250000D02*
X-8746000Y+7250000D01*
D34*
X-8936692Y+7125638D02*
X-8918268Y+7104911D01*
X-8918268Y+7042730D01*
X-8955116Y+7001276D01*
X-8991964Y+7001276D01*
X-9028812Y+7042730D01*
X-9028812Y+7104911D01*
X-9010388Y+7125638D01*
X-8991964Y+7208546D02*
X-9028812Y+7250000D01*
X-8918268Y+7250000D01*
X-8936692Y+7332908D02*
X-9010388Y+7332908D01*
X-9028812Y+7353635D01*
X-9028812Y+7436543D01*
X-9010388Y+7457270D01*
X-8936692Y+7457270D01*
X-8918268Y+7436543D01*
X-8918268Y+7353635D01*
X-8936692Y+7332908D01*
X-8918268Y+7332908D02*
X-9028812Y+7457270D01*
D70*
X-1103060Y+3172340D02*
X-396940Y+3172340D01*
X-396940Y+3675260D01*
X-1103060Y+3675260D01*
X-1103060Y+3172340D01*
D35*
X-546800Y+3500000D02*
X-546800Y+3500000D01*
D36*
X-991807Y+3440648D02*
X-953898Y+3474345D01*
X-915989Y+3474345D01*
X-878080Y+3440648D01*
X-878080Y+3406951D01*
X-915989Y+3373254D01*
X-953898Y+3373254D01*
X-991807Y+3406951D01*
X-991807Y+3440648D01*
X-915989Y+3406951D02*
X-878080Y+3373254D01*
X-821216Y+3457497D02*
X-802261Y+3474345D01*
X-745397Y+3474345D01*
X-726443Y+3457497D01*
X-726443Y+3440648D01*
X-745397Y+3423800D01*
X-726443Y+3406951D01*
X-726443Y+3390102D01*
X-745397Y+3373254D01*
X-802261Y+3373254D01*
X-821216Y+3390102D01*
X-783307Y+3423800D02*
X-745397Y+3423800D01*
D70*
X-11887160Y+4686500D02*
X-10850840Y+4686500D01*
X-10850840Y+5575500D01*
X-11887160Y+5575500D01*
X-11887160Y+4686500D01*
D37*
X-11750000Y+4750000D02*
X-11750000Y+4750000D01*
D38*
X-11641186Y+5266179D02*
X-11641186Y+5114964D01*
X-11607163Y+5084721D01*
X-11471070Y+5084721D01*
X-11437047Y+5114964D01*
X-11437047Y+5266179D01*
X-11300954Y+5205693D02*
X-11232907Y+5266179D01*
X-11232907Y+5084721D01*
D70*
X-7518160Y+5485840D02*
X-6481840Y+5485840D01*
X-6481840Y+6522160D01*
X-7518160Y+6522160D01*
X-7518160Y+5485840D01*
D27*
X-7000000Y+5750000D02*
X-7000000Y+5750000D01*
D28*
X-7282853Y+6135131D02*
X-7282853Y+6103703D01*
X-7247497Y+6072275D01*
X-7106070Y+6072275D01*
X-7070714Y+6103703D01*
X-7070714Y+6260844D01*
X-6964644Y+6229416D02*
X-6929287Y+6260844D01*
X-6823217Y+6260844D01*
X-6787861Y+6229416D01*
X-6787861Y+6197988D01*
X-6823217Y+6166560D01*
X-6787861Y+6135131D01*
X-6787861Y+6103703D01*
X-6823217Y+6072275D01*
X-6929287Y+6072275D01*
X-6964644Y+6103703D01*
X-6893931Y+6166560D02*
X-6823217Y+6166560D01*
D70*
X-5768160Y+5485840D02*
X-4731840Y+5485840D01*
X-4731840Y+6522160D01*
X-5768160Y+6522160D01*
X-5768160Y+5485840D01*
D27*
X-5250000Y+5750000D02*
X-5250000Y+5750000D01*
D28*
X-5532853Y+6135131D02*
X-5532853Y+6103703D01*
X-5497497Y+6072275D01*
X-5356070Y+6072275D01*
X-5320714Y+6103703D01*
X-5320714Y+6260844D01*
X-5037861Y+6135131D02*
X-5250000Y+6135131D01*
X-5108574Y+6260844D01*
X-5108574Y+6072275D01*
D70*
X-4268160Y+5485840D02*
X-3231840Y+5485840D01*
X-3231840Y+6522160D01*
X-4268160Y+6522160D01*
X-4268160Y+5485840D01*
D27*
X-3750000Y+5750000D02*
X-3750000Y+5750000D01*
D28*
X-4032853Y+6135131D02*
X-4032853Y+6103703D01*
X-3997497Y+6072275D01*
X-3856070Y+6072275D01*
X-3820714Y+6103703D01*
X-3820714Y+6260844D01*
X-3537861Y+6260844D02*
X-3714644Y+6260844D01*
X-3714644Y+6197988D01*
X-3573217Y+6197988D01*
X-3537861Y+6166560D01*
X-3537861Y+6103703D01*
X-3573217Y+6072275D01*
X-3679287Y+6072275D01*
X-3714644Y+6103703D01*
D70*
X-2518160Y+5485840D02*
X-1481840Y+5485840D01*
X-1481840Y+6522160D01*
X-2518160Y+6522160D01*
X-2518160Y+5485840D01*
D27*
X-2000000Y+5750000D02*
X-2000000Y+5750000D01*
D28*
X-2282853Y+6135131D02*
X-2282853Y+6103703D01*
X-2247497Y+6072275D01*
X-2106070Y+6072275D01*
X-2070714Y+6103703D01*
X-2070714Y+6260844D01*
X-1787861Y+6229416D02*
X-1823217Y+6260844D01*
X-1929287Y+6260844D01*
X-1964644Y+6229416D01*
X-1964644Y+6103703D01*
X-1929287Y+6072275D01*
X-1823217Y+6072275D01*
X-1787861Y+6103703D01*
X-1787861Y+6135131D01*
X-1823217Y+6166560D01*
X-1964644Y+6166560D01*
D70*
X-11637160Y+3858840D02*
X-11362840Y+3858840D01*
X-11362840Y+4387160D01*
X-11637160Y+4387160D01*
X-11637160Y+3858840D01*
D73*
X-11500000Y+4250000D02*
X-11500000Y+4250000D01*
D39*
X-11477648Y+4011494D02*
X-11466472Y+3998921D01*
X-11466472Y+3961202D01*
X-11488824Y+3936056D01*
X-11511176Y+3936056D01*
X-11533528Y+3961202D01*
X-11533528Y+3998921D01*
X-11522352Y+4011494D01*
X-11522352Y+4049213D02*
X-11533528Y+4061786D01*
X-11533528Y+4099505D01*
X-11522352Y+4112078D01*
X-11511176Y+4112078D01*
X-11500000Y+4099505D01*
X-11500000Y+4061786D01*
X-11488824Y+4049213D01*
X-11466472Y+4049213D01*
X-11466472Y+4112078D01*
D70*
X-6338900Y+4411100D02*
X-5145100Y+4411100D01*
X-5145100Y+4588900D01*
X-6338900Y+4588900D01*
X-6338900Y+4411100D01*
D73*
X-6250000Y+4500000D02*
X-6250000Y+4500000D01*
D30*
X-5778982Y+4466929D02*
X-5778982Y+4533070D01*
X-5716975Y+4533070D01*
X-5704573Y+4522047D01*
X-5704573Y+4511023D01*
X-5716975Y+4500000D01*
X-5778982Y+4500000D01*
X-5716975Y+4500000D02*
X-5704573Y+4488976D01*
X-5704573Y+4466929D01*
X-5605361Y+4533070D02*
X-5667369Y+4533070D01*
X-5667369Y+4511023D01*
X-5617763Y+4511023D01*
X-5605361Y+4500000D01*
X-5605361Y+4477952D01*
X-5617763Y+4466929D01*
X-5654967Y+4466929D01*
X-5667369Y+4477952D01*
D70*
X-4588900Y+4411100D02*
X-3395100Y+4411100D01*
X-3395100Y+4588900D01*
X-4588900Y+4588900D01*
X-4588900Y+4411100D01*
D73*
X-4500000Y+4500000D02*
X-4500000Y+4500000D01*
D30*
X-4028982Y+4466929D02*
X-4028982Y+4533070D01*
X-3966975Y+4533070D01*
X-3954573Y+4522047D01*
X-3954573Y+4511023D01*
X-3966975Y+4500000D01*
X-4028982Y+4500000D01*
X-3966975Y+4500000D02*
X-3954573Y+4488976D01*
X-3954573Y+4466929D01*
X-3855361Y+4522047D02*
X-3867763Y+4533070D01*
X-3904967Y+4533070D01*
X-3917369Y+4522047D01*
X-3917369Y+4477952D01*
X-3904967Y+4466929D01*
X-3867763Y+4466929D01*
X-3855361Y+4477952D01*
X-3855361Y+4488976D01*
X-3867763Y+4500000D01*
X-3917369Y+4500000D01*
D70*
X-3088900Y+4411100D02*
X-1895100Y+4411100D01*
X-1895100Y+4588900D01*
X-3088900Y+4588900D01*
X-3088900Y+4411100D01*
D73*
X-3000000Y+4500000D02*
X-3000000Y+4500000D01*
D30*
X-2528982Y+4466929D02*
X-2528982Y+4533070D01*
X-2466975Y+4533070D01*
X-2454573Y+4522047D01*
X-2454573Y+4511023D01*
X-2466975Y+4500000D01*
X-2528982Y+4500000D01*
X-2466975Y+4500000D02*
X-2454573Y+4488976D01*
X-2454573Y+4466929D01*
X-2417369Y+4533070D02*
X-2355361Y+4533070D01*
X-2355361Y+4522047D01*
X-2417369Y+4466929D01*
D70*
X-1588900Y+4411100D02*
X-395100Y+4411100D01*
X-395100Y+4588900D01*
X-1588900Y+4588900D01*
X-1588900Y+4411100D01*
D73*
X-1500000Y+4500000D02*
X-1500000Y+4500000D01*
D30*
X-1028982Y+4466929D02*
X-1028982Y+4533070D01*
X-966975Y+4533070D01*
X-954573Y+4522047D01*
X-954573Y+4511023D01*
X-966975Y+4500000D01*
X-1028982Y+4500000D01*
X-966975Y+4500000D02*
X-954573Y+4488976D01*
X-954573Y+4466929D01*
X-904967Y+4500000D02*
X-917369Y+4511023D01*
X-917369Y+4522047D01*
X-904967Y+4533070D01*
X-867763Y+4533070D01*
X-855361Y+4522047D01*
X-855361Y+4511023D01*
X-867763Y+4500000D01*
X-904967Y+4500000D01*
X-917369Y+4488976D01*
X-917369Y+4477952D01*
X-904967Y+4466929D01*
X-867763Y+4466929D01*
X-855361Y+4477952D01*
X-855361Y+4488976D01*
X-867763Y+4500000D01*
D70*
X-10603060Y+6574740D02*
X-9896940Y+6574740D01*
X-9896940Y+7077660D01*
X-10603060Y+7077660D01*
X-10603060Y+6574740D01*
D35*
X-10453200Y+6750000D02*
X-10453200Y+6750000D01*
D36*
X-10311467Y+6843048D02*
X-10273558Y+6876745D01*
X-10235649Y+6876745D01*
X-10197740Y+6843048D01*
X-10197740Y+6809351D01*
X-10235649Y+6775654D01*
X-10273558Y+6775654D01*
X-10311467Y+6809351D01*
X-10311467Y+6843048D01*
X-10235649Y+6809351D02*
X-10197740Y+6775654D01*
X-10046103Y+6809351D02*
X-10159830Y+6809351D01*
X-10084012Y+6876745D01*
X-10084012Y+6775654D01*
D70*
X-6387160Y+3612840D02*
X-5858840Y+3612840D01*
X-5858840Y+3887160D01*
X-6387160Y+3887160D01*
X-6387160Y+3612840D01*
D73*
X-6250000Y+3750000D02*
X-6250000Y+3750000D01*
D39*
X-6061786Y+3727648D02*
X-6074359Y+3716472D01*
X-6112078Y+3716472D01*
X-6137224Y+3738824D01*
X-6137224Y+3761176D01*
X-6112078Y+3783528D01*
X-6074359Y+3783528D01*
X-6061786Y+3772352D01*
X-5961202Y+3783528D02*
X-6024067Y+3783528D01*
X-6024067Y+3761176D01*
X-5973775Y+3761176D01*
X-5961202Y+3750000D01*
X-5961202Y+3727648D01*
X-5973775Y+3716472D01*
X-6011494Y+3716472D01*
X-6024067Y+3727648D01*
D70*
X-4637160Y+3612840D02*
X-4108840Y+3612840D01*
X-4108840Y+3887160D01*
X-4637160Y+3887160D01*
X-4637160Y+3612840D01*
D73*
X-4500000Y+3750000D02*
X-4500000Y+3750000D01*
D39*
X-4311786Y+3727648D02*
X-4324359Y+3716472D01*
X-4362078Y+3716472D01*
X-4387224Y+3738824D01*
X-4387224Y+3761176D01*
X-4362078Y+3783528D01*
X-4324359Y+3783528D01*
X-4311786Y+3772352D01*
X-4211202Y+3772352D02*
X-4223775Y+3783528D01*
X-4261494Y+3783528D01*
X-4274067Y+3772352D01*
X-4274067Y+3727648D01*
X-4261494Y+3716472D01*
X-4223775Y+3716472D01*
X-4211202Y+3727648D01*
X-4211202Y+3738824D01*
X-4223775Y+3750000D01*
X-4274067Y+3750000D01*
D70*
X-3137160Y+3612840D02*
X-2608840Y+3612840D01*
X-2608840Y+3887160D01*
X-3137160Y+3887160D01*
X-3137160Y+3612840D01*
D73*
X-3000000Y+3750000D02*
X-3000000Y+3750000D01*
D39*
X-2811786Y+3727648D02*
X-2824359Y+3716472D01*
X-2862078Y+3716472D01*
X-2887224Y+3738824D01*
X-2887224Y+3761176D01*
X-2862078Y+3783528D01*
X-2824359Y+3783528D01*
X-2811786Y+3772352D01*
X-2774067Y+3783528D02*
X-2711202Y+3783528D01*
X-2711202Y+3772352D01*
X-2774067Y+3716472D01*
D70*
X-7637160Y+4612840D02*
X-7108840Y+4612840D01*
X-7108840Y+4887160D01*
X-7637160Y+4887160D01*
X-7637160Y+4612840D01*
D73*
X-7500000Y+4750000D02*
X-7500000Y+4750000D01*
D39*
X-7311786Y+4727648D02*
X-7324359Y+4716472D01*
X-7362078Y+4716472D01*
X-7387224Y+4738824D01*
X-7387224Y+4761176D01*
X-7362078Y+4783528D01*
X-7324359Y+4783528D01*
X-7311786Y+4772352D01*
X-7261494Y+4750000D02*
X-7274067Y+4761176D01*
X-7274067Y+4772352D01*
X-7261494Y+4783528D01*
X-7223775Y+4783528D01*
X-7211202Y+4772352D01*
X-7211202Y+4761176D01*
X-7223775Y+4750000D01*
X-7261494Y+4750000D01*
X-7274067Y+4738824D01*
X-7274067Y+4727648D01*
X-7261494Y+4716472D01*
X-7223775Y+4716472D01*
X-7211202Y+4727648D01*
X-7211202Y+4738824D01*
X-7223775Y+4750000D01*
D70*
X-10137160Y+4362840D02*
X-9608840Y+4362840D01*
X-9608840Y+4637160D01*
X-10137160Y+4637160D01*
X-10137160Y+4362840D01*
D73*
X-10000000Y+4500000D02*
X-10000000Y+4500000D01*
D39*
X-9811786Y+4477648D02*
X-9824359Y+4466472D01*
X-9862078Y+4466472D01*
X-9887224Y+4488824D01*
X-9887224Y+4511176D01*
X-9862078Y+4533528D01*
X-9824359Y+4533528D01*
X-9811786Y+4522352D01*
X-9774067Y+4522352D02*
X-9761494Y+4533528D01*
X-9723775Y+4533528D01*
X-9711202Y+4522352D01*
X-9711202Y+4511176D01*
X-9723775Y+4500000D01*
X-9711202Y+4488824D01*
X-9711202Y+4477648D01*
X-9723775Y+4466472D01*
X-9761494Y+4466472D01*
X-9774067Y+4477648D01*
X-9748921Y+4500000D02*
X-9723775Y+4500000D01*
D70*
X-9137160Y+5112840D02*
X-8608840Y+5112840D01*
X-8608840Y+5387160D01*
X-9137160Y+5387160D01*
X-9137160Y+5112840D01*
D73*
X-9000000Y+5250000D02*
X-9000000Y+5250000D01*
D39*
X-8811786Y+5227648D02*
X-8824359Y+5216472D01*
X-8862078Y+5216472D01*
X-8887224Y+5238824D01*
X-8887224Y+5261176D01*
X-8862078Y+5283528D01*
X-8824359Y+5283528D01*
X-8811786Y+5272352D01*
X-8711202Y+5238824D02*
X-8786640Y+5238824D01*
X-8736348Y+5283528D01*
X-8736348Y+5216472D01*
D70*
X-8088900Y+3411100D02*
X-6895100Y+3411100D01*
X-6895100Y+3588900D01*
X-8088900Y+3588900D01*
X-8088900Y+3411100D01*
D73*
X-8000000Y+3500000D02*
X-8000000Y+3500000D01*
D30*
X-7528982Y+3466929D02*
X-7528982Y+3533070D01*
X-7466975Y+3533070D01*
X-7454573Y+3522047D01*
X-7454573Y+3511023D01*
X-7466975Y+3500000D01*
X-7528982Y+3500000D01*
X-7466975Y+3500000D02*
X-7454573Y+3488976D01*
X-7454573Y+3466929D01*
X-7355361Y+3488976D02*
X-7429770Y+3488976D01*
X-7380164Y+3533070D01*
X-7380164Y+3466929D01*
D70*
X-2137160Y+4862840D02*
X-1608840Y+4862840D01*
X-1608840Y+5137160D01*
X-2137160Y+5137160D01*
X-2137160Y+4862840D01*
D73*
X-2000000Y+5000000D02*
X-2000000Y+5000000D01*
D39*
X-1811786Y+4977648D02*
X-1824359Y+4966472D01*
X-1862078Y+4966472D01*
X-1887224Y+4988824D01*
X-1887224Y+5011176D01*
X-1862078Y+5033528D01*
X-1824359Y+5033528D01*
X-1811786Y+5022352D01*
X-1711202Y+5011176D02*
X-1723775Y+5000000D01*
X-1761494Y+5000000D01*
X-1774067Y+5011176D01*
X-1774067Y+5022352D01*
X-1761494Y+5033528D01*
X-1723775Y+5033528D01*
X-1711202Y+5022352D01*
X-1711202Y+4977648D01*
X-1723775Y+4966472D01*
X-1761494Y+4966472D01*
D70*
X-9088900Y+5911100D02*
X-7895100Y+5911100D01*
X-7895100Y+6088900D01*
X-9088900Y+6088900D01*
X-9088900Y+5911100D01*
D73*
X-9000000Y+6000000D02*
X-9000000Y+6000000D01*
D30*
X-8528982Y+5966929D02*
X-8528982Y+6033070D01*
X-8466975Y+6033070D01*
X-8454573Y+6022047D01*
X-8454573Y+6011023D01*
X-8466975Y+6000000D01*
X-8528982Y+6000000D01*
X-8466975Y+6000000D02*
X-8454573Y+5988976D01*
X-8454573Y+5966929D01*
X-8417369Y+6022047D02*
X-8404967Y+6033070D01*
X-8367763Y+6033070D01*
X-8355361Y+6022047D01*
X-8355361Y+6011023D01*
X-8367763Y+6000000D01*
X-8355361Y+5988976D01*
X-8355361Y+5977952D01*
X-8367763Y+5966929D01*
X-8404967Y+5966929D01*
X-8417369Y+5977952D01*
X-8392566Y+6000000D02*
X-8367763Y+6000000D01*
M02*
