G04 PROTEUS GERBER X2 FILE*
%TF.GenerationSoftware,Labcenter,Proteus,8.13-SP0-Build31525*%
%TF.CreationDate,2022-10-31T03:05:26+00:00*%
%TF.FileFunction,Soldermask,Bot*%
%TF.FilePolarity,Negative*%
%TF.Part,Single*%
%TF.SameCoordinates,{c032f36a-8843-4a41-912d-e50223fc27ad}*%
%FSLAX45Y45*%
%MOMM*%
G01*
%TA.AperFunction,Material*%
%ADD20C,3.302000*%
%ADD21C,2.540000*%
%ADD22C,2.032000*%
%ADD23C,2.286000*%
%TA.AperFunction,Material*%
%ADD24C,1.778000*%
%AMPPAD017*
4,1,36,
-0.635000,0.762000,
0.635000,0.762000,
0.660970,0.759470,
0.684980,0.752200,
0.706580,0.740650,
0.725290,0.725290,
0.740650,0.706570,
0.752200,0.684980,
0.759470,0.660970,
0.762000,0.635000,
0.762000,-0.635000,
0.759470,-0.660970,
0.752200,-0.684980,
0.740650,-0.706570,
0.725290,-0.725290,
0.706580,-0.740650,
0.684980,-0.752200,
0.660970,-0.759470,
0.635000,-0.762000,
-0.635000,-0.762000,
-0.660970,-0.759470,
-0.684980,-0.752200,
-0.706580,-0.740650,
-0.725290,-0.725290,
-0.740650,-0.706570,
-0.752200,-0.684980,
-0.759470,-0.660970,
-0.762000,-0.635000,
-0.762000,0.635000,
-0.759470,0.660970,
-0.752200,0.684980,
-0.740650,0.706570,
-0.725290,0.725290,
-0.706580,0.740650,
-0.684980,0.752200,
-0.660970,0.759470,
-0.635000,0.762000,
0*%
%TA.AperFunction,Material*%
%ADD25PPAD017*%
%ADD26C,1.524000*%
%TA.AperFunction,Profile*%
%ADD17C,0.203200*%
%TD.AperFunction*%
D20*
X-12750000Y+8250000D03*
X-13258000Y+8250000D03*
X-3250000Y+8750000D03*
X-2742000Y+8750000D03*
D21*
X-12500000Y+7266000D03*
X-12500000Y+6250000D03*
D22*
X-11750000Y+6250000D03*
X-11750000Y+7266000D03*
X-11250000Y+7250000D03*
X-11250000Y+6234000D03*
D20*
X-8000000Y+9250000D03*
X-8000000Y+8749620D03*
X-8000000Y+8249240D03*
D22*
X-10500000Y+8000000D03*
X-9484000Y+8000000D03*
X-10500000Y+7750000D03*
X-9484000Y+7750000D03*
X-10500000Y+8250000D03*
X-9484000Y+8250000D03*
D23*
X-13250000Y+4750000D03*
X-12996000Y+4750000D03*
X-9000000Y+7250000D03*
X-8746000Y+7250000D03*
D24*
X-546800Y+3500000D03*
X-750000Y+3500000D03*
X-953200Y+3500000D03*
D25*
X-11750000Y+4750000D03*
D26*
X-11496000Y+4750000D03*
X-11242000Y+4750000D03*
X-10988000Y+4750000D03*
X-10988000Y+5512000D03*
X-11242000Y+5512000D03*
X-11496000Y+5512000D03*
X-11750000Y+5512000D03*
D20*
X-7000000Y+5750000D03*
X-7000000Y+6258000D03*
X-5250000Y+5750000D03*
X-5250000Y+6258000D03*
X-3750000Y+5750000D03*
X-3750000Y+6258000D03*
X-2000000Y+5750000D03*
X-2000000Y+6258000D03*
D22*
X-11500000Y+4250000D03*
X-11500000Y+3996000D03*
X-6250000Y+4500000D03*
X-5234000Y+4500000D03*
X-4500000Y+4500000D03*
X-3484000Y+4500000D03*
X-3000000Y+4500000D03*
X-1984000Y+4500000D03*
X-1500000Y+4500000D03*
X-484000Y+4500000D03*
D24*
X-10453200Y+6750000D03*
X-10250000Y+6750000D03*
X-10046800Y+6750000D03*
D22*
X-6250000Y+3750000D03*
X-5996000Y+3750000D03*
X-4500000Y+3750000D03*
X-4246000Y+3750000D03*
X-3000000Y+3750000D03*
X-2746000Y+3750000D03*
X-7500000Y+4750000D03*
X-7246000Y+4750000D03*
X-10000000Y+4500000D03*
X-9746000Y+4500000D03*
X-9000000Y+5250000D03*
X-8746000Y+5250000D03*
X-8000000Y+3500000D03*
X-6984000Y+3500000D03*
X-2000000Y+5000000D03*
X-1746000Y+5000000D03*
X-9000000Y+6000000D03*
X-7984000Y+6000000D03*
D17*
X-13750000Y+2750000D02*
X+0Y+2750000D01*
X+0Y+10000000D01*
X-13750000Y+10000000D01*
X-13750000Y+2750000D01*
M02*
