G04 PROTEUS GERBER X2 FILE*
%TF.GenerationSoftware,Labcenter,Proteus,8.13-SP0-Build31525*%
%TF.CreationDate,2022-10-31T03:05:26+00:00*%
%TF.FileFunction,Copper,L2,Bot*%
%TF.FilePolarity,Positive*%
%TF.Part,Single*%
%TF.SameCoordinates,{c032f36a-8843-4a41-912d-e50223fc27ad}*%
%FSLAX45Y45*%
%MOMM*%
G01*
%TA.AperFunction,Conductor*%
%ADD18C,0.762000*%
%ADD19C,1.016000*%
%TA.AperFunction,ComponentPad*%
%ADD10C,3.048000*%
%ADD11C,2.286000*%
%ADD12C,1.778000*%
%ADD13C,2.032000*%
%TA.AperFunction,ComponentPad*%
%ADD14C,1.524000*%
%TA.AperFunction,ComponentPad*%
%ADD15R,1.270000X1.270000*%
%ADD16C,1.270000*%
%TA.AperFunction,Profile*%
%ADD17C,0.203200*%
%TD.AperFunction*%
D18*
X-12750000Y+8250000D02*
X-12500000Y+8000000D01*
X-12500000Y+7266000D01*
X-11750000Y+5512000D02*
X-12234000Y+5512000D01*
X-12996000Y+4750000D01*
X-12500000Y+6250000D02*
X-12500000Y+6667500D01*
X-12065000Y+7102500D01*
X-12065000Y+7429500D01*
X-11938000Y+7556500D01*
X-11112500Y+7556500D01*
X-10500000Y+8000000D02*
X-10287000Y+8000000D01*
X-10160000Y+8127000D01*
X-10160000Y+8318500D01*
X-10287000Y+8445500D01*
X-10985500Y+8445500D01*
X-11112500Y+8318500D01*
X-11112500Y+7556500D01*
X-11049000Y+7493000D01*
X-11049000Y+5905500D01*
X-11115000Y+5839500D01*
X-11115000Y+5207000D01*
X-10988000Y+5080000D01*
X-10988000Y+4750000D01*
X-10500000Y+7750000D02*
X-10500000Y+7493000D01*
X-10453200Y+7446200D01*
X-10453200Y+6750000D01*
X-12500000Y+6250000D02*
X-11750000Y+6250000D01*
X-11750000Y+5512000D01*
X-10500000Y+8000000D02*
X-10500000Y+7750000D01*
X-11496000Y+7429500D02*
X-11338900Y+7429500D01*
X-11250000Y+7340600D01*
X-11250000Y+7250000D01*
X-11496000Y+7429500D02*
X-11661100Y+7429500D01*
X-11750000Y+7340600D01*
X-11750000Y+7266000D01*
X-11496000Y+7366000D02*
X-11496000Y+7429500D01*
X-11496000Y+7366000D02*
X-11496000Y+5512000D01*
X-9000000Y+5250000D02*
X-9906000Y+5250000D01*
X-10647500Y+4508500D01*
X-11242000Y+4508500D01*
X-11242000Y+4750000D01*
X-9000000Y+5250000D02*
X-9000000Y+6000000D01*
X-11496000Y+4750000D02*
X-11496000Y+4953000D01*
X-11242000Y+5207000D01*
X-11242000Y+5512000D01*
X-11242000Y+6226000D01*
X-11250000Y+6234000D01*
X-11496000Y+4750000D02*
X-11496000Y+4254000D01*
X-11500000Y+4250000D01*
X-10988000Y+5512000D02*
X-10858500Y+5382500D01*
X-10858500Y+4616550D01*
X-11115000Y+4616550D01*
X-11115000Y+4889500D01*
X-11369000Y+4889500D01*
X-11369000Y+4508500D01*
X-11345600Y+4485100D01*
X-11345600Y+4381500D01*
X-11218600Y+4254500D01*
X-10245500Y+4254500D01*
X-10000000Y+4500000D01*
X-6250000Y+3750000D02*
X-7048500Y+3750000D01*
X-7496500Y+3302000D01*
X-8572500Y+3302000D01*
X-8746000Y+3475500D01*
X-8746000Y+5250000D01*
X-6250000Y+3750000D02*
X-6250000Y+4500000D01*
X-7500000Y+4750000D02*
X-8000000Y+4250000D01*
X-8000000Y+3500000D01*
X-7500000Y+4750000D02*
X-7500000Y+5516000D01*
X-7984000Y+6000000D01*
X-1500000Y+4500000D02*
X-750000Y+3750000D01*
X-750000Y+3500000D01*
X-1984000Y+4500000D02*
X-2000000Y+4516000D01*
X-2000000Y+5000000D01*
X-1984000Y+4500000D02*
X-1500000Y+4500000D01*
X-10046800Y+6750000D02*
X-10319800Y+6477000D01*
X-10541000Y+6477000D01*
X-10668000Y+6604000D01*
X-10668000Y+8082000D01*
X-10500000Y+8250000D01*
X-10046800Y+6750000D02*
X-7810500Y+6750000D01*
X-7029500Y+5969000D01*
X-6731000Y+5969000D01*
X-6604000Y+6096000D01*
X-6604000Y+7112000D01*
X-6742000Y+7250000D01*
X-8746000Y+7250000D01*
X-8000000Y+8749620D02*
X-9000000Y+7749620D01*
X-9000000Y+7250000D01*
D19*
X-2413000Y+6159500D02*
X-2257500Y+6004000D01*
X-1841500Y+6004000D01*
X-1714500Y+6131000D01*
X-1714500Y+9080500D01*
X-1884000Y+9250000D01*
X-8000000Y+9250000D01*
X-2413000Y+6159500D02*
X-2413000Y+8421000D01*
X-2742000Y+8750000D01*
X-2746000Y+3750000D02*
X-2746000Y+4508500D01*
X-2476500Y+4778000D01*
X-2476500Y+6096000D01*
X-2413000Y+6159500D01*
X-2746000Y+3750000D02*
X-1203200Y+3750000D01*
X-953200Y+3500000D01*
X-11500000Y+3996000D02*
X-11938000Y+4434000D01*
X-11938000Y+4572000D01*
X-5996000Y+3750000D02*
X-6246000Y+3500000D01*
X-6984000Y+3500000D01*
X-13250000Y+4750000D02*
X-12945000Y+4445000D01*
X-12509500Y+4445000D01*
X-12001500Y+4953000D01*
X-11953000Y+4953000D01*
X-11750000Y+4750000D01*
X-11750000Y+4572000D01*
X-11938000Y+4572000D01*
X-13258000Y+8250000D02*
X-13258000Y+7810500D01*
X-13250000Y+7802500D01*
X-13250000Y+4750000D01*
X-13258000Y+8250000D02*
X-12808500Y+8699500D01*
X-9933500Y+8699500D01*
X-9484000Y+8250000D01*
X-4500000Y+3750000D02*
X-4179000Y+3429000D01*
X-3067000Y+3429000D01*
X-2746000Y+3750000D01*
X-5996000Y+3750000D02*
X-4500000Y+3750000D01*
X-6984000Y+3500000D02*
X-6984000Y+3302000D01*
X-7286000Y+3000000D01*
X-8715000Y+3000000D01*
X-9842500Y+4127500D01*
X-11500000Y+3996000D02*
X-9974000Y+3996000D01*
X-9842500Y+4127500D01*
X-9746000Y+4224000D01*
X-9746000Y+4500000D01*
D18*
X-3750000Y+6258000D02*
X-2984500Y+7023500D01*
X-2984500Y+8953500D01*
X-9484000Y+7750000D02*
X-8217000Y+9017000D01*
X-3048000Y+9017000D01*
X-2984500Y+8953500D01*
X-2921000Y+9017000D01*
X-2159000Y+9017000D01*
X-2000000Y+8858000D01*
X-2000000Y+6258000D01*
X-9461500Y+7112000D02*
X-9398000Y+7048500D01*
X-7175500Y+7048500D01*
X-7000000Y+6873000D01*
X-7000000Y+6258000D01*
X-9461500Y+7112000D02*
X-9888000Y+7112000D01*
X-10250000Y+6750000D01*
X-9484000Y+7750000D02*
X-9484000Y+7366000D01*
X-9461500Y+7343500D01*
X-9461500Y+7112000D01*
X-3750000Y+6258000D02*
X-5250000Y+6258000D01*
X-7000000Y+5750000D02*
X-7246000Y+5504000D01*
X-7246000Y+4750000D01*
X-4500000Y+4500000D02*
X-4246000Y+4246000D01*
X-4246000Y+3750000D01*
X-5234000Y+4500000D02*
X-5234000Y+5207000D01*
X-5250000Y+5223000D01*
X-5250000Y+5750000D01*
X-5234000Y+4500000D02*
X-4500000Y+4500000D01*
X-3484000Y+4500000D02*
X-3484000Y+5484000D01*
X-3750000Y+5750000D01*
X-3000000Y+4500000D02*
X-3000000Y+3750000D01*
X-3484000Y+4500000D02*
X-3000000Y+4500000D01*
X-2000000Y+5750000D02*
X-1587500Y+5750000D01*
X-1460500Y+5877000D01*
X-1460500Y+9525000D01*
X-1587500Y+9652000D01*
X-9144000Y+9652000D01*
X-9271000Y+9525000D01*
X-9271000Y+8213000D01*
X-9484000Y+8000000D01*
X-484000Y+4500000D02*
X-984000Y+5000000D01*
X-1746000Y+5000000D01*
X-2000000Y+5750000D02*
X-2000000Y+5254000D01*
X-1746000Y+5000000D01*
X-484000Y+4500000D02*
X-484000Y+4127500D01*
X-546800Y+4064700D01*
X-546800Y+3500000D01*
X-3250000Y+8750000D02*
X-3750760Y+8249240D01*
X-8000000Y+8249240D01*
D10*
X-12750000Y+8250000D03*
X-13258000Y+8250000D03*
X-3250000Y+8750000D03*
X-2742000Y+8750000D03*
D11*
X-12500000Y+7266000D03*
X-12500000Y+6250000D03*
D12*
X-11750000Y+6250000D03*
X-11750000Y+7266000D03*
X-11250000Y+7250000D03*
X-11250000Y+6234000D03*
D10*
X-8000000Y+9250000D03*
X-8000000Y+8749620D03*
X-8000000Y+8249240D03*
D12*
X-10500000Y+8000000D03*
X-9484000Y+8000000D03*
X-10500000Y+7750000D03*
X-9484000Y+7750000D03*
X-10500000Y+8250000D03*
X-9484000Y+8250000D03*
D13*
X-13250000Y+4750000D03*
X-12996000Y+4750000D03*
X-9000000Y+7250000D03*
X-8746000Y+7250000D03*
D14*
X-546800Y+3500000D03*
X-750000Y+3500000D03*
X-953200Y+3500000D03*
D15*
X-11750000Y+4750000D03*
D16*
X-11496000Y+4750000D03*
X-11242000Y+4750000D03*
X-10988000Y+4750000D03*
X-10988000Y+5512000D03*
X-11242000Y+5512000D03*
X-11496000Y+5512000D03*
X-11750000Y+5512000D03*
D10*
X-7000000Y+5750000D03*
X-7000000Y+6258000D03*
X-5250000Y+5750000D03*
X-5250000Y+6258000D03*
X-3750000Y+5750000D03*
X-3750000Y+6258000D03*
X-2000000Y+5750000D03*
X-2000000Y+6258000D03*
D12*
X-11500000Y+4250000D03*
X-11500000Y+3996000D03*
X-6250000Y+4500000D03*
X-5234000Y+4500000D03*
X-4500000Y+4500000D03*
X-3484000Y+4500000D03*
X-3000000Y+4500000D03*
X-1984000Y+4500000D03*
X-1500000Y+4500000D03*
X-484000Y+4500000D03*
D14*
X-10453200Y+6750000D03*
X-10250000Y+6750000D03*
X-10046800Y+6750000D03*
D12*
X-6250000Y+3750000D03*
X-5996000Y+3750000D03*
X-4500000Y+3750000D03*
X-4246000Y+3750000D03*
X-3000000Y+3750000D03*
X-2746000Y+3750000D03*
X-7500000Y+4750000D03*
X-7246000Y+4750000D03*
X-10000000Y+4500000D03*
X-9746000Y+4500000D03*
X-9000000Y+5250000D03*
X-8746000Y+5250000D03*
X-8000000Y+3500000D03*
X-6984000Y+3500000D03*
X-2000000Y+5000000D03*
X-1746000Y+5000000D03*
X-9000000Y+6000000D03*
X-7984000Y+6000000D03*
D17*
X-13750000Y+2750000D02*
X+0Y+2750000D01*
X+0Y+10000000D01*
X-13750000Y+10000000D01*
X-13750000Y+2750000D01*
M02*
